<svg width="121" height="74" viewBox="0 0 121 74" fill="none" xmlns="http://www.w3.org/2000/svg">
<path fill-rule="evenodd" clip-rule="evenodd" d="M67.3816 70.067C63.1105 67.9162 57.8895 67.9162 53.6184 70.067C48.6216 72.5831 42.9763 74 37 74C16.5655 74 0 57.4345 0 37C0 16.5655 16.5655 0 37 0C42.9763 0 48.6216 1.41688 53.6184 3.93304C57.8895 6.08378 63.1105 6.08378 67.3816 3.93304C72.3784 1.41688 78.0237 0 84 0C104.435 0 121 16.5655 121 37C121 57.4345 104.435 74 84 74C78.0237 74 72.3784 72.5831 67.3816 70.067Z" fill="#FF7373"/>
</svg>
