<svg width="240" height="240" viewBox="0 0 240 240" fill="none" xmlns="http://www.w3.org/2000/svg">
<rect x="1.5" y="1.5" width="79" height="79" fill="#E2FAB3" stroke="#8BBA2E" stroke-width="3"/>
<rect x="80.5" y="1.5" width="79" height="79" fill="#E2FAB3" stroke="#8BBA2E" stroke-width="3"/>
<rect x="159.5" y="1.5" width="79" height="79" fill="#E2FAB3" stroke="#8BBA2E" stroke-width="3"/>
<rect x="1.5" y="80.5" width="79" height="79" fill="#E2FAB3" fill-opacity="0.7" stroke="#8BBA2E" stroke-width="3"/>
<rect x="80.5" y="80.5" width="79" height="79" fill="#E2FAB3" fill-opacity="0.7" stroke="#8BBA2E" stroke-width="3"/>
<rect x="159.5" y="80.5" width="79" height="79" fill="#E2FAB3" fill-opacity="0.7" stroke="#8BBA2E" stroke-width="3"/>
<rect x="1.5" y="159.5" width="79" height="79" fill="#E2FAB3" fill-opacity="0.4" stroke="#8BBA2E" stroke-width="3"/>
<rect x="80.5" y="159.5" width="79" height="79" fill="#E2FAB3" fill-opacity="0.4" stroke="#8BBA2E" stroke-width="3"/>
<rect x="159.5" y="159.5" width="79" height="79" fill="#E2FAB3" fill-opacity="0.4" stroke="#8BBA2E" stroke-width="3"/>
<path d="M30.6363 49.148V47.124L44.7603 26.752H47.8843V46.948H52.5483V49.148H47.8843V53.064C47.8843 54.0613 49.1456 54.56 51.6683 54.56V55.88H37.0603V54.56C40.3163 54.56 41.9443 53.9733 41.9443 52.8V49.148H30.6363ZM41.9443 46.948L42.3843 33.22L32.8803 46.948H41.9443Z" fill="#222222"/>
<path d="M209.58 46.992L209.052 55.836H188.9C189.076 55.0733 189.414 54.2373 189.912 53.328C190.44 52.3893 191.203 51.4067 192.2 50.38L197.876 44.572C199.988 42.372 201.294 40.8907 201.792 40.128C202.848 38.6027 203.376 36.828 203.376 34.804C203.376 32.9267 202.863 31.416 201.836 30.272C200.839 29.0987 199.446 28.512 197.656 28.512C196.718 28.512 195.706 28.82 194.62 29.436C193.535 29.9933 192.992 30.6387 192.992 31.372C192.992 31.9293 193.315 32.3107 193.96 32.516C194.518 32.7213 194.928 32.8827 195.192 33C195.486 33.1173 195.662 33.1907 195.72 33.22C196.366 33.66 196.688 34.364 196.688 35.332C196.688 36.036 196.336 36.6667 195.632 37.224C194.958 37.752 194.151 38.016 193.212 38.016C192.215 38.016 191.408 37.6493 190.792 36.916C190.264 36.3 190 35.5667 190 34.716C190 32.7213 190.734 30.9907 192.2 29.524C193.931 27.7933 196.351 26.928 199.46 26.928C202.247 26.928 204.638 27.7053 206.632 29.26C208.598 30.7853 209.58 32.648 209.58 34.848C209.58 36.6667 208.759 38.4413 207.116 40.172C206.09 41.2573 204.183 42.7533 201.396 44.66C197.436 47.3587 194.84 49.632 193.608 51.48H202.496C204.227 51.48 205.4 51.304 206.016 50.952C207.043 50.3947 207.85 49.0307 208.436 46.86L209.58 46.992Z" fill="#222222"/>
<path d="M129.964 193.628C129.964 195.388 128.952 196.943 126.928 198.292C125.462 199.26 123.746 200.008 121.78 200.536C124.215 200.829 126.298 201.621 128.028 202.912C129.906 204.349 130.844 206.08 130.844 208.104C130.844 210.48 129.612 212.372 127.148 213.78C124.89 215.071 122.118 215.716 118.832 215.716C117.043 215.716 115.254 215.232 113.464 214.264C111.235 213.091 110.12 211.536 110.12 209.6C110.12 208.661 110.428 207.855 111.044 207.18C111.66 206.476 112.555 206.124 113.728 206.124C116.016 206.124 117.16 207.136 117.16 209.16C117.16 209.835 116.852 210.392 116.236 210.832C115.914 211.067 115.342 211.331 114.52 211.624C113.934 211.859 113.67 212.064 113.728 212.24C113.992 213.12 114.608 213.707 115.576 214C116.427 214.235 117.571 214.352 119.008 214.352C120.856 214.352 122.235 213.677 123.144 212.328C123.966 211.155 124.376 209.644 124.376 207.796C124.376 203.249 122.866 200.976 119.844 200.976C119.698 200.976 119.566 200.976 119.448 200.976C119.331 200.976 119.199 200.991 119.052 201.02C118.524 201.079 118.07 201.137 117.688 201.196C117.336 201.225 117.043 201.24 116.808 201.24C116.046 201.24 115.664 201.035 115.664 200.624C115.664 200.096 116.09 199.832 116.94 199.832C117.556 199.832 118.231 199.935 118.964 200.14C119.756 200.345 120.71 199.979 121.824 199.04C123.232 197.867 123.936 196.077 123.936 193.672C123.936 189.331 122.455 187.16 119.492 187.16C118.143 187.16 117.014 187.439 116.104 187.996C115.342 188.495 114.96 189.008 114.96 189.536C114.96 189.829 115.474 190.196 116.5 190.636C117.556 191.135 118.084 191.824 118.084 192.704C118.084 194.464 116.984 195.344 114.784 195.344C114.08 195.344 113.391 195.139 112.716 194.728C111.895 194.2 111.484 193.408 111.484 192.352C111.484 190.651 112.364 189.155 114.124 187.864C115.943 186.573 118.04 185.928 120.416 185.928C123.35 185.928 125.696 186.676 127.456 188.172C129.128 189.639 129.964 191.457 129.964 193.628Z" fill="#222222"/>
</svg>
